<svg width="20" height="22" viewBox="0 0 20 22" fill="none" xmlns="http://www.w3.org/2000/svg">
<mask id="mask0" mask-type="alpha" maskUnits="userSpaceOnUse" x="0" y="0" width="20" height="22">
<path fill-rule="evenodd" clip-rule="evenodd" d="M0 0H20V22H0V0Z" fill="white"/>
</mask>
<g mask="url(#mask0)">
<path fill-rule="evenodd" clip-rule="evenodd" d="M1.49566 20.6234L2.79297 6.87444H5.71169V8.43839C5.28671 8.67729 5.001 9.11638 5.001 9.6234C5.001 10.3822 5.63847 11 6.42688 11C7.21527 11 7.85719 10.3822 7.85719 9.6234C7.85719 9.11638 7.56793 8.67729 7.14205 8.43839V6.87444H12.8545V8.43839C12.4295 8.67729 12.1438 9.11638 12.1438 9.6234C12.1438 10.3822 12.7813 11 13.5697 11C14.358 11 15 10.3822 15 9.6234C15 9.11638 14.7107 8.67729 14.2848 8.43839V6.87444H17.2044L18.5017 20.6234H1.49566ZM7.14205 4.12554C7.14205 2.60798 8.42595 1.3766 9.99824 1.3766C11.575 1.3766 12.8545 2.60798 12.8545 4.12554V5.49787H7.14205V4.12554ZM18.5678 6.12601C18.533 5.77025 18.2259 5.49787 17.8562 5.49787H14.2848V4.12554C14.2848 1.84924 12.3634 0 9.99824 0C7.63757 0 5.71169 1.84924 5.71169 4.12554V5.49787H2.14033C1.77069 5.49787 1.46443 5.77025 1.4296 6.12601L0.00284251 21.2481C-0.0150294 21.4423 0.051944 21.6305 0.187668 21.7749C0.319783 21.9158 0.511777 22 0.71444 22H19.2865C19.4848 22 19.6767 21.9158 19.8125 21.7749C19.9455 21.6305 20.0151 21.4423 19.9972 21.2481L18.5678 6.12601Z" fill="white"/>
</g>
</svg>
