<svg width="27" height="21" viewBox="0 0 27 21" fill="none" xmlns="http://www.w3.org/2000/svg">
<mask id="mask0" mask-type="alpha" maskUnits="userSpaceOnUse" x="0" y="0" width="27" height="21">
<path fill-rule="evenodd" clip-rule="evenodd" d="M0 0H27V21H0V0Z" fill="white"/>
</mask>
<g mask="url(#mask0)">
<path fill-rule="evenodd" clip-rule="evenodd" d="M1.41766 5.47273H21.1504C21.9301 5.47273 22.568 6.07511 22.568 6.81124V19.6614C22.568 20.3976 21.9301 21 21.1504 21H1.41766C0.637959 21 0 20.3976 0 19.6614V6.81124C0 6.07511 0.637959 5.47273 1.41766 5.47273ZM6.53445 0.0271476L25.8666 3.76227C26.6305 3.90987 27.1276 4.62079 26.9713 5.34202L24.2431 17.9314C24.1511 18.3559 23.8524 18.693 23.4665 18.8685V13.8988L25.3472 5.22031L6.40555 1.56056L5.74163 4.62434H4.09123L4.86148 1.07018C5.01771 0.348867 5.77053 -0.120459 6.53445 0.0271476ZM2.13708 17.6137L8.77263 12.944C10.2863 14.0701 11.0432 14.6332 11.0432 14.6332C14.2083 12.4243 15.7907 11.3198 15.7907 11.3198L20.4309 14.5161V18.9821H2.13708V17.6137ZM4.88515 8.36657C5.89043 8.36657 6.70545 9.13613 6.70545 10.0854C6.70545 11.0347 5.89043 11.8042 4.88515 11.8042C3.87977 11.8042 3.06475 11.0347 3.06475 10.0854C3.06475 9.13613 3.87977 8.36657 4.88515 8.36657ZM1.61692 19.4733H20.9511V6.99947H1.61692V19.4733Z" fill="#3B3B3A"/>
</g>
</svg>
