<svg width="20" height="20" viewBox="0 0 20 20" fill="none" xmlns="http://www.w3.org/2000/svg">
<mask id="mask0" mask-type="alpha" maskUnits="userSpaceOnUse" x="0" y="0" width="20" height="20">
<path fill-rule="evenodd" clip-rule="evenodd" d="M0 0H20V20H0V0Z" fill="white"/>
</mask>
<g mask="url(#mask0)">
<path fill-rule="evenodd" clip-rule="evenodd" d="M2.01342 8.55141C2.01342 4.94061 4.94063 2.01347 8.55138 2.01347C12.1622 2.01347 15.0893 4.94061 15.0893 8.55141C15.0893 10.0806 14.5603 11.4839 13.6806 12.5975L12.598 13.6803C11.4844 14.5601 10.0808 15.0894 8.55138 15.0894C4.94063 15.0894 2.01342 12.1622 2.01342 8.55141ZM19.4782 16.9588L15.7243 13.2049C16.5951 11.8654 17.1029 10.2681 17.1029 8.55141C17.1029 3.82856 13.2742 0 8.55138 0C3.82855 0 0 3.82856 0 8.55141C0 13.2743 3.82855 17.1029 8.55138 17.1029C10.2681 17.1029 11.8654 16.5951 13.2049 15.7242L16.9588 19.4782C17.6546 20.174 18.7826 20.1739 19.4783 19.4781C20.1739 18.7824 20.1739 17.6545 19.4782 16.9588Z" fill="white"/>
</g>
</svg>
