<svg xmlns="http://www.w3.org/2000/svg" width="25.46" height="23" viewBox="0 0 25.46 23">
  <g id="waze" transform="translate(-14.626 -23.112)">
    <path id="Path_1" data-name="Path 1" d="M84.886,69.519a1.23,1.23,0,1,1-1.23-1.23,1.23,1.23,0,0,1,1.23,1.23" transform="translate(-57.589 -38.243)" fill="#fff" stroke="#fff" stroke-width="1"/>
    <path id="Path_2" data-name="Path 2" d="M124.8,69.519a1.23,1.23,0,1,1-1.23-1.23,1.231,1.231,0,0,1,1.23,1.23" transform="translate(-91.757 -38.243)" fill="#fff" stroke="#fff" stroke-width="1"/>
    <path id="Path_3" data-name="Path 3" d="M84.948,99.357A4.3,4.3,0,0,1,80.641,96.2a.641.641,0,1,1,1.258-.242,3.05,3.05,0,0,0,3.141,2.116,3.16,3.16,0,0,0,3.141-2.1.641.641,0,0,1,1.247.293,3.784,3.784,0,0,1-1.494,2.149,5.038,5.038,0,0,1-2.861.939l-.125,0" transform="translate(-56.051 -61.484)" fill="#fff" stroke="#fff" stroke-width="1"/>
    <path id="Path_4" data-name="Path 4" d="M39.459,31.944a9.226,9.226,0,0,0-1.651-3.9,10.667,10.667,0,0,0-3.837-3.236,11.219,11.219,0,0,0-5.026-1.2,10.983,10.983,0,0,0-1.463.1,11.679,11.679,0,0,0-5.6,2.367,8.857,8.857,0,0,0-3.338,5.252,16.8,16.8,0,0,0-.216,1.91,8.631,8.631,0,0,1-.475,2.729c-.219.465-.545.775-1.428.775A1.281,1.281,0,0,0,15.406,38.8,10.214,10.214,0,0,0,20.3,42.273a2.539,2.539,0,1,0,4.946.9c.6.032,3.432.04,3.749.031a2.539,2.539,0,1,0,4.9-1.041,10.869,10.869,0,0,0,2.757-1.926,9.29,9.29,0,0,0,2.429-3.746,9.408,9.408,0,0,0,.373-4.549M22.71,43.91a.838.838,0,1,1,.838-.838.838.838,0,0,1-.838.838m8.818,0a.838.838,0,1,1,.838-.838.838.838,0,0,1-.838.838m6.34-7.817a8.913,8.913,0,0,1-4.728,5.016,2.538,2.538,0,0,0-3.872.807c-.429.018-3.619.007-4.318-.041a2.537,2.537,0,0,0-3.921-.7,9.082,9.082,0,0,1-4.6-3.145c3.623,0,2.908-4.049,3.377-6.45.714-3.659,4.334-6.12,7.847-6.594a9.659,9.659,0,0,1,1.292-.087c5.773,0,10.912,5.154,8.923,11.2" transform="translate(0)" fill="#fff" stroke="#fff" stroke-width="1"/>
  </g>
</svg>
